<?xml version="1.0"?>
<svg xmlns="http://www.w3.org/2000/svg" xmlns:xlink="http://www.w3.org/1999/xlink" xmlns:svgjs="http://svgjs.com/svgjs" version="1.1" width="512" height="512" x="0" y="0" viewBox="0 0 512 512" style="enable-background:new 0 0 512 512" xml:space="preserve" class=""><g transform="matrix(0.67,0,0,0.67,84.48016616821289,84.4801354336459)"><g xmlns="http://www.w3.org/2000/svg"><g><g><path d="m431.678 249.613c-.002-1.044.323-2.058.912-2.92 12.259-17.931 18.724-39.208 18.499-60.954l-1.351-130.71c0-9.411-7.318-17.426-16.723-17.76-9.873-.351-17.988 7.549-17.988 17.344v-18.653c0-9.585-7.77-17.355-17.355-17.355-9.585 0-17.355 7.77-17.355 17.355v-8.898c0-9.411-7.318-17.426-16.722-17.76-9.874-.351-17.988 7.549-17.988 17.344v-8.874c0-9.411-7.318-17.425-16.722-17.76-9.873-.351-17.988 7.549-17.988 17.344v143.694l24.27 53.366 1.092 297.584h85.546c5.696 0 10.311-4.623 10.302-10.319z" fill="#fdb0a0" data-original="#fdb0a0" style="" class=""/><path d="m431.675 249.611.43 252.068c.01 5.696-4.605 10.319-10.302 10.319h-14.391l-.448-262.389c-.002-1.044.323-2.059.912-2.921 12.048-17.626 18.506-38.494 18.506-59.855 0-.366-.008-.731-.008-1.097l-1.352-130.712c0-4.821-1.922-9.277-5.059-12.517 3.274-3.376 7.925-5.417 13.053-5.238 9.405.332 16.726 8.35 16.726 17.755l1.352 130.712c0 .366.009.731.009 1.097 0 21.361-6.458 42.228-18.514 59.855-.591.864-.916 1.879-.914 2.923z" fill="#f9a08f" data-original="#f9a08f" style="" class=""/></g><g><path d="m323.725 146.798c-2.566-.897-4.284-3.318-4.282-6.036l.033-53.833c.015-12.81-11.533-22.615-24.274-20.372-9.965 1.754-17.055 10.712-17.055 20.83v59.485 27.314c0 40.772 33.052 73.825 73.825 73.825h16.585c3.529 0 6.39-2.861 6.39-6.39v-22.67c-.001-32.494-20.547-61.436-51.222-72.153z" fill="#ffcec0" data-original="#ffcec0" style="" class=""/></g><g><path d="m415.029 35.964v88.215c0 4.265-3.461 7.726-7.726 7.726s-7.726-3.462-7.726-7.726v-105.471c8.694.948 15.452 8.303 15.452 17.256z" fill="#f9a08f" data-original="#f9a08f" style="" class=""/></g><g><path d="m380.322 27.063v97.115c0 4.265-3.461 7.726-7.726 7.726-4.275 0-7.726-3.462-7.726-7.726v-114.773c8.787.959 15.452 8.675 15.452 17.658z" fill="#f9a08f" data-original="#f9a08f" style="" class=""/></g><g><path d="m345.605 17.771v106.407c0 4.265-3.461 7.726-7.726 7.726s-7.726-3.462-7.726-7.726v-124.065c8.787.969 15.452 8.674 15.452 17.658z" fill="#f9a08f" data-original="#f9a08f" style="" class=""/></g></g><g><g><path d="m214.43 301.124c-.002-1.045.323-2.06.912-2.922 12.259-17.931 18.724-39.207 18.499-60.953l-1.351-130.71c0-9.411-7.318-17.426-16.723-17.76-9.873-.351-17.988 7.549-17.988 17.344v-18.654c0-9.585-7.77-17.355-17.355-17.355-9.585 0-17.355 7.77-17.355 17.355v-8.898c0-9.411-7.318-17.426-16.722-17.76-9.874-.351-17.988 7.549-17.988 17.344v-8.875c0-9.411-7.318-17.425-16.722-17.76-9.873-.351-17.988 7.549-17.988 17.344v143.695l24.27 53.366 1.047 235.818c.025 5.672 4.63 10.256 10.302 10.256h75.285c5.698 0 10.314-4.626 10.302-10.324z" fill="#ffcec0" data-original="#ffcec0" style="" class=""/><path d="m214.427 301.122.425 200.554c.012 5.698-4.604 10.324-10.302 10.324h-14.387l-.447-210.879c-.002-1.045.323-2.06.912-2.923 12.048-17.626 18.506-38.493 18.506-59.854 0-.366-.008-.731-.008-1.097l-1.352-130.712c0-4.821-1.922-9.277-5.059-12.517 3.274-3.376 7.925-5.417 13.053-5.238 9.405.332 16.726 8.35 16.726 17.755l1.352 130.712c0 .366.009.731.009 1.097 0 21.361-6.458 42.228-18.513 59.854-.592.863-.918 1.878-.915 2.924z" fill="#fdb0a0" data-original="#fdb0a0" style="" class=""/><path d="" style="fill:none;stroke:#000;stroke-width:15;stroke-linecap:round;stroke-linejoin:round;stroke-miterlimit:10" fill=""/></g><g><path d="m106.476 198.307c-2.566-.896-4.284-3.318-4.282-6.036l.033-53.833c.015-12.81-11.533-22.615-24.274-20.372-9.965 1.754-17.055 10.712-17.055 20.83v59.485 27.314c0 40.772 33.052 73.825 73.825 73.825h16.585c3.529 0 6.39-2.861 6.39-6.39v-22.67c-.001-32.494-20.546-61.436-51.222-72.153z" fill="#d69c81" data-original="#ffdfd0" style="" class=""/></g><g><path d="m197.784 87.473v88.215c0 4.265-3.461 7.726-7.726 7.726-4.275 0-7.726-3.462-7.726-7.726v-105.461c8.684.938 15.452 8.304 15.452 17.246z" fill="#fdb0a0" data-original="#fdb0a0" style="" class=""/></g><g><path d="m163.067 78.572v97.115c0 4.265-3.461 7.726-7.726 7.726s-7.726-3.462-7.726-7.726v-114.772c8.787.958 15.452 8.663 15.452 17.657z" fill="#fdb0a0" data-original="#fdb0a0" style="" class=""/></g><g><path d="m128.361 69.28v106.407c0 4.265-3.461 7.726-7.726 7.726s-7.726-3.462-7.726-7.726v-124.065c8.786.969 15.452 8.675 15.452 17.658z" fill="#fdb0a0" data-original="#fdb0a0" style="" class=""/></g></g><g><g><path d="m341.392 414.45c-.005-1.049.32-2.069.912-2.934 12.256-17.93 18.72-39.204 18.495-60.947l-1.351-130.71c0-9.411-7.318-17.426-16.723-17.76-9.873-.351-17.988 7.549-17.988 17.344v-18.654c0-9.585-7.77-17.355-17.355-17.355-9.585 0-17.355 7.77-17.355 17.355v-8.898c0-9.411-7.318-17.426-16.722-17.76-9.874-.351-17.988 7.549-17.988 17.344v-8.874c0-9.411-7.318-17.425-16.722-17.76-9.873-.351-17.988 7.549-17.988 17.344v143.695l24.27 53.366 1.008 122.537c.047 5.656 4.645 10.217 10.301 10.217h75.299c5.708 0 10.328-4.641 10.302-10.348z" fill="#c86f5c" data-original="#c86f5c" style="" class=""/><path d="m341.388 414.448.396 87.202c.026 5.708-4.594 10.349-10.302 10.349h-14.362l-.443-97.552c-.005-1.049.32-2.069.912-2.935 12.045-17.625 18.502-38.49 18.502-59.848 0-.366-.008-.731-.008-1.097l-1.352-130.712c0-4.821-1.922-9.277-5.059-12.517 3.274-3.376 7.925-5.417 13.053-5.238 9.405.332 16.726 8.35 16.726 17.755l1.352 130.712c0 .366.009.731.009 1.097 0 21.358-6.457 42.223-18.509 59.848-.594.866-.92 1.887-.915 2.936z" fill="#ba5d4f" data-original="#ba5d4f" style=""/></g><g><path d="m233.434 311.627c-2.566-.897-4.284-3.318-4.282-6.036l.033-53.833c.015-12.81-11.533-22.615-24.274-20.372-9.965 1.754-17.055 10.712-17.055 20.83v59.485 27.314c0 40.772 33.052 73.825 73.825 73.825h16.588c3.528 0 6.387-2.86 6.387-6.387v-22.673c-.001-32.494-20.547-61.436-51.222-72.153z" fill="#d5887a" data-original="#d5887a" style="" class=""/></g><g><path d="m324.734 200.792v88.215c0 4.265-3.451 7.726-7.726 7.726-4.265 0-7.726-3.462-7.726-7.726v-105.47c8.694.948 15.452 8.303 15.452 17.255z" fill="#ba5d4f" data-original="#ba5d4f" style=""/></g><g><path d="m290.027 191.892v97.115c0 4.265-3.461 7.726-7.726 7.726s-7.726-3.462-7.726-7.726v-114.772c8.787.958 15.452 8.663 15.452 17.657z" fill="#ba5d4f" data-original="#ba5d4f" style=""/></g><g><path d="m255.32 182.6v106.407c0 4.265-3.461 7.726-7.726 7.726-4.275 0-7.726-3.462-7.726-7.726v-124.065c8.787.969 15.452 8.685 15.452 17.658z" fill="#ba5d4f" data-original="#ba5d4f" style=""/></g></g></g></g></svg>
