<svg id="Capa_1" enable-background="new 0 0 512 512" height="512" viewBox="0 0 512 512" width="512" xmlns="http://www.w3.org/2000/svg"><g><path d="m317.055 93.611c-13.727 0-24.855 11.128-24.855 24.855v-66.329c0-13.727-11.128-24.855-24.855-24.855-13.727 0-24.855 11.128-24.855 24.855v-27.277c0-13.727-11.128-24.855-24.855-24.855-13.727 0-24.855 11.128-24.855 24.855v30.54c0-13.727-11.128-24.855-24.855-24.855-13.727 0-24.855 11.128-24.855 24.855v164.32l-12.226-29.63c-5.456-13.224-20.524-19.611-33.821-14.337-13.483 5.347-20.04 20.645-14.613 34.097l17.159 42.535 5.396 12.449c9.221 21.272 24.839 38.452 44.024 49.701 8.243 4.833 13.191 13.786 13.191 23.342v37.488h130.02v-37.298c0-9.232 4.738-17.738 12.419-22.859 22.478-14.987 37.291-40.558 37.291-69.601v-2.177-124.964c0-13.727-11.127-24.855-24.855-24.855z" fill="#fed2a4"/><g fill="#ffbd86"><path d="m292.205 52.141v143.474h-3.174c-9.588 0-17.361-7.773-17.361-17.361v-126.113c0-6.859-2.783-13.081-7.28-17.579-2.095-2.095-4.569-3.82-7.311-5.062 3.132-1.427 6.612-2.218 10.268-2.218 6.859 0 13.081 2.783 17.579 7.28 4.496 4.497 7.279 10.72 7.279 17.579z"/><path d="m242.487 24.859v170.756h-3.164c-9.588 0-17.361-7.773-17.361-17.361v-153.395c0-6.869-2.783-13.081-7.28-17.579-2.095-2.095-4.569-3.82-7.311-5.062 3.132-1.427 6.602-2.218 10.268-2.218 6.869 0 13.071 2.783 17.568 7.28 4.498 4.497 7.28 10.709 7.28 17.579z"/><path d="m192.78 55.968v139.647h-3.174c-9.588 0-17.361-7.773-17.361-17.361v-122.859c0-10.063-5.976-18.729-14.58-22.631 3.177-1.453 6.716-2.246 10.454-2.217 13.744.107 24.661 11.675 24.661 25.421z"/><path d="m341.912 118.461v127.148c0 29.038-14.817 54.615-37.293 69.596-7.68 5.124-12.414 13.626-12.414 22.856v22.62h-20.536v-33.021c0-9.231 4.733-17.743 12.414-22.856 22.477-14.991 37.293-40.558 37.293-69.606v-116.737c0-10.052-5.986-18.718-14.58-22.63 3.121-1.427 6.592-2.218 10.258-2.218 13.727 0 24.858 11.13 24.858 24.848z"/><path d="m143.073 219.723.733 11.776c.429 6.883-9.028 9.194-11.822 2.889l-15.577-35.149c-4.97-12.034-17.887-18.4-30.188-15.494 2.742-3.45 6.407-6.243 10.802-7.988 13.297-5.278 28.37 1.109 33.823 14.334z"/></g><g><path d="m386.292 232.133c-4.253 0-7.701-3.447-7.701-7.701v-116.267c0-4.254 3.448-7.701 7.701-7.701s7.701 3.447 7.701 7.701v116.267c0 4.254-3.448 7.701-7.701 7.701z" fill="#c5d3dd"/></g><g><path d="m423.796 148.957c-4.253 0-7.701-3.447-7.701-7.701v-33.091c0-4.254 3.448-7.701 7.701-7.701s7.701 3.447 7.701 7.701v33.091c0 4.253-3.448 7.701-7.701 7.701z" fill="#c5d3dd"/></g><path d="m312.707 511.995h-169.841v-144.705c0-3.648 2.957-6.605 6.605-6.605h156.631c3.648 0 6.605 2.957 6.605 6.605z" fill="#d9b1ee"/><path d="m312.71 367.294v144.706h-20.536v-144.706c0-3.655-2.957-6.613-6.612-6.613h20.536c3.654 0 6.612 2.958 6.612 6.613z" fill="#cb97e7"/></g></svg>